<svg width="240" height="240" viewBox="0 0 240 240" fill="none" xmlns="http://www.w3.org/2000/svg">
<path fill-rule="evenodd" clip-rule="evenodd" d="M51 24C49.3458 24 48 22.6542 48 21C48 19.3457 49.3458 18 51 18C52.6542 18 54 19.3457 54 21C54 22.6542 52.6542 24 51 24Z" fill="#CACAFB"/>
<path fill-rule="evenodd" clip-rule="evenodd" d="M21 192C19.3458 192 18 190.654 18 189C18 187.346 19.3458 186 21 186C22.6542 186 24 187.346 24 189C24 190.654 22.6542 192 21 192Z" fill="#CACAFB"/>
<path fill-rule="evenodd" clip-rule="evenodd" d="M231 174C229.346 174 228 172.654 228 171C228 169.346 229.346 168 231 168C232.654 168 234 169.346 234 171C234 172.654 232.654 174 231 174Z" fill="#CACAFB"/>
<path fill-rule="evenodd" clip-rule="evenodd" d="M183 18C181.346 18 180 16.6542 180 15C180 13.3457 181.346 12 183 12C184.654 12 186 13.3457 186 15C186 16.6542 184.654 18 183 18Z" fill="#CACAFB"/>
<path fill-rule="evenodd" clip-rule="evenodd" d="M117 126C107.059 126 99 134.059 99 144C99 150.663 102.62 156.48 108 159.592V171C108 175.971 112.029 180 117 180C121.971 180 126 175.971 126 171V159.592C131.38 156.48 135 150.663 135 144C135 134.059 126.941 126 117 126ZM117 156C123.627 156 129 150.627 129 144C129 137.373 123.627 132 117 132C110.373 132 105 137.373 105 144C105 150.627 110.373 156 117 156ZM114 162V171C114 172.539 115.158 173.807 116.65 173.98L117 174C118.657 174 120 172.657 120 171V162H114Z" fill="#E1000F"/>
<path d="M176.201 187.564L175.929 190.475H172.266L171.643 183.984C176.162 183.511 179.123 182.528 179.123 179.184C179.123 177.138 177.565 175.721 175.539 175.721C173.474 175.721 172.188 176.823 170.747 178.987L166.5 176.351C168.682 172.849 171.643 171 175.773 171C180.37 171 184.5 174.187 184.5 179.184C184.5 183.787 181.032 186.738 176.201 187.564Z" fill="#000091"/>
<path d="M177.526 196.377C177.526 198.226 175.929 199.8 174.136 199.8C172.266 199.8 170.708 198.226 170.708 196.377C170.708 194.528 172.266 192.954 174.136 192.954C175.929 192.954 177.526 194.528 177.526 196.377Z" fill="#000091"/>
<path fill-rule="evenodd" clip-rule="evenodd" d="M117 30C146.314 30 168 46.9698 168 72.5738C168 74.2306 166.657 75.5738 165 75.5738C163.343 75.5738 162 74.2306 162 72.5738C162 50.6504 143.278 36 117 36C91.0871 36 72.5215 50.2463 72.0108 71.6645L72 72.5738V84H84C88.9706 84 93 88.0294 93 93V99C93 100.052 92.8195 101.062 92.4879 102H141.512C141.18 101.062 141 100.052 141 99V93C141 88.0294 145.029 84 150 84V73.8685C150 58.4035 136.209 48 116.679 48C99.6558 48 86.6926 56.0402 83.9288 68.5028C83.5701 70.1204 81.968 71.1409 80.3505 70.7821C78.7329 70.4234 77.7124 68.8213 78.0712 67.2038C81.5188 51.6573 97.0893 42 116.679 42C138.867 42 155.482 54.2764 155.988 72.9868L156 73.8685V84H165C169.971 84 174 88.0294 174 93V99C174 100.052 173.82 101.062 173.488 102H174.129C180.603 102 185.684 107.766 185.986 114.809L186 115.473V135C186 136.657 184.657 138 183 138C181.461 138 180.193 136.842 180.02 135.35L180 135V115.473C180 111.429 177.485 108.284 174.533 108.018L174.129 108H53.8714C50.885 108 48.2398 110.969 48.0154 114.927L48 115.473V144H69C70.6569 144 72 145.343 72 147C72 148.538 70.8419 149.807 69.3499 149.98L69 150H48V168H66L66.5288 168.015C71.2532 168.289 75 172.207 75 177V198H146.496C144.891 194.325 144 190.267 144 186C144 169.431 157.431 156 174 156C190.569 156 204 169.431 204 186C204 202.569 190.569 216 174 216C164.185 216 155.471 211.287 149.998 204H53.8714C47.3968 204 42.3162 198.234 42.0142 191.191L42 190.527V115.473C42 108.355 46.8844 102.373 53.2686 102.017L53.8714 102H60.5121C60.1805 101.062 60 100.052 60 99V93C60 89.066 62.5241 85.7215 66.0411 84.4977C66.0329 84.4488 66.0259 84.3995 66.0202 84.3499L66 84V72.5738C66 46.9698 87.6862 30 117 30ZM165 102C166.657 102 168 100.657 168 99V93C168 91.3431 166.657 90 165 90H150C148.343 90 147 91.3431 147 93V99C147 100.657 148.343 102 150 102H165ZM87 99C87 100.657 85.6569 102 84 102H69C67.3431 102 66 100.657 66 99V93C66 91.3431 67.3431 90 69 90H84C85.6569 90 87 91.3431 87 93V99ZM48 190.527V174H66C67.5385 174 68.8065 175.158 68.9798 176.65L69 177V198H53.8714L53.4665 197.982C50.5154 197.716 48 194.571 48 190.527ZM174 162C187.255 162 198 172.745 198 186C198 199.255 187.255 210 174 210C160.745 210 150 199.255 150 186C150 172.745 160.745 162 174 162Z" fill="#000091"/>
<path d="M186 147C186 148.657 184.657 150 183 150C181.343 150 180 148.657 180 147C180 145.343 181.343 144 183 144C184.657 144 186 145.343 186 147Z" fill="#000091"/>
<path d="M78 147C78 145.343 79.3431 144 81 144C82.6569 144 84 145.343 84 147C84 148.657 82.6569 150 81 150C79.3431 150 78 148.657 78 147Z" fill="#000091"/>
</svg>
